<svg width="170" height="48" viewBox="0 0 170 48" fill="none" xmlns="http://www.w3.org/2000/svg">
<path d="M12.4118 13.2941C10.8676 13.2941 9.67647 12.1029 9.67647 10.6029C9.67647 9.14706 10.8676 8 12.4118 8C13.8676 8 15.0588 9.14706 15.0588 10.6029C15.0588 12.1029 13.8676 13.2941 12.4118 13.2941ZM17.1324 40.6471H8.13235V40.4706C10.1618 40.2941 10.9559 39.1029 10.9559 37.0294V23.6618C10.9559 21.2353 10.25 20.2206 8 20.1324V19.9559L14.0882 18.0147H14.3088V37.0294C14.3088 39.1029 15.1471 40.2941 17.1324 40.4706V40.6471Z" fill="#18161E"/>
<path d="M40.4099 8.17647H40.6305V35.5735C40.6305 37.8235 41.3364 38.8824 43.7188 38.9706V39.1471L37.3658 40.7794V35.75C35.6011 39.0588 32.954 41 29.5129 41C24.2629 41 20.2482 37.0294 20.2482 30.0588C20.2482 22.7794 25.1893 17.7059 31.2776 17.7059C33.6158 17.7059 35.8217 18.5882 37.2776 20V13.6912C37.2776 11.3971 36.4835 10.3382 34.2776 10.25V10.0735L40.4099 8.17647ZM31.0129 38.8382C33.704 38.8382 35.954 37.4265 37.2776 34.9559V20.9706C35.6452 19.1618 33.5717 18.3676 31.1893 18.3676C26.3805 18.3676 23.0717 22.6029 23.0717 28.4265C23.0717 34.7353 26.6011 38.8382 31.0129 38.8382Z" fill="#18161E"/>
<path d="M87.0302 9.36765V9.58823C84.7802 9.72059 83.8979 10.8235 83.8979 12.6324V37.3824C83.8979 39.1912 84.7802 40.2941 87.0302 40.4265V40.6471H77.1037V40.4265C79.3979 40.2941 80.2802 39.1471 80.2802 37.3824V24.6765H64.5743V37.3824C64.5743 39.1912 65.4567 40.2941 67.7508 40.4265V40.6471H57.7802V40.4265C60.0743 40.2941 60.9567 39.1471 60.9567 37.3824V12.6324C60.9567 10.8676 60.0743 9.72059 57.7802 9.58823V9.36765H67.7508V9.58823C65.4567 9.72059 64.5743 10.8235 64.5743 12.6324V23.8382H80.2802V12.6324C80.2802 10.8676 79.3979 9.72059 77.1037 9.58823V9.36765H87.0302Z" fill="#18161E"/>
<path d="M104.226 9.10294L115.785 37.3824C116.49 39.0588 117.064 40.2059 119.314 40.4265V40.6471H109.211V40.4265C111.417 40.25 112.255 39.7206 112.255 38.6176C112.255 38.0882 112.079 37.5588 111.858 36.9853L109.388 30.7647H95.9316L93.7258 36.5441C93.5052 37.1618 93.3728 37.7794 93.3728 38.2647C93.3728 39.5882 94.1669 40.1618 96.3728 40.4265V40.6471H88.6964V40.4265C90.9905 40.0294 92.0052 38.2647 92.7993 36.2353L103.255 9.10294H104.226ZM102.505 13.6029L96.2846 29.8824H109.035L102.505 13.6029Z" fill="#18161E"/>
<path d="M130.783 40.6471H120.769V40.4265C123.063 40.2941 123.945 39.1912 123.945 37.3824V12.6324C123.945 10.8235 123.063 9.72059 120.769 9.58823V9.36765H130.739V9.58823C128.445 9.72059 127.563 10.8235 127.563 12.6324V37.3824C127.563 39.1912 128.445 40.2941 130.783 40.4265V40.6471Z" fill="#18161E"/>
<path d="M153.074 28.6471L158.06 37.6912C158.986 39.3676 159.692 40.1176 161.721 40.4265V40.6471H155.677C155.192 40.0294 154.31 38.4853 153.736 37.3824L149.766 29.7941C148.442 27.1471 146.986 26.0882 143.942 26.0882H141.78V37.3824C141.78 39.3676 142.486 40.2941 145.001 40.4265V40.6471H134.986V40.4265C137.236 40.2941 138.163 39.3676 138.163 37.3824V12.6324C138.163 10.7353 137.236 9.72059 134.986 9.58823V9.36765H146.677C154.045 9.36765 157.971 12.0588 157.971 17.4853C157.971 21.8971 154.442 24.8088 149.368 25.7353C150.692 25.9559 152.06 26.7941 153.074 28.6471ZM141.78 12.5882V25.2059H145.618C151.31 25.2059 154.266 22.4706 154.266 17.7059C154.266 13.0735 151.398 10.2059 146.457 10.2059H144.383C142.751 10.2059 141.78 10.8676 141.78 12.5882Z" fill="#18161E"/>
</svg>
