<svg width="90" height="31" viewBox="0 0 90 31" fill="none" xmlns="http://www.w3.org/2000/svg">
<path d="M4.99219 2.40234C4.96094 2.12891 4.86328 1.89258 4.69922 1.69336C4.53516 1.49414 4.31641 1.34375 4.04297 1.24219C3.76953 1.14062 3.46094 1.08984 3.11719 1.08984C2.75 1.08984 2.42578 1.14844 2.14453 1.26562C1.86328 1.38281 1.64453 1.54688 1.48828 1.75781C1.33203 1.96875 1.25391 2.21094 1.25391 2.48438C1.25391 2.875 1.41406 3.17383 1.73438 3.38086C2.05469 3.58789 2.44141 3.75 2.89453 3.86719L3.73828 4.10156C4.39453 4.26562 4.95898 4.52344 5.43164 4.875C5.9043 5.22656 6.14062 5.75 6.14062 6.44531C6.14062 6.90625 6.01953 7.32422 5.77734 7.69922C5.53516 8.07422 5.18164 8.36914 4.7168 8.58398C4.25195 8.79883 3.69922 8.90625 3.05859 8.90625C2.45703 8.90625 1.93164 8.80859 1.48242 8.61328C1.0332 8.41797 0.681641 8.14258 0.427734 7.78711C0.173828 7.43164 0.03125 7.01953 0 6.55078H1.07812C1.10938 6.85547 1.2168 7.11133 1.40039 7.31836C1.58398 7.52539 1.82031 7.68164 2.10938 7.78711C2.39844 7.89258 2.71484 7.94531 3.05859 7.94531C3.44922 7.94531 3.80078 7.88281 4.11328 7.75781C4.42578 7.63281 4.66992 7.45312 4.8457 7.21875C5.02148 6.98438 5.10938 6.71875 5.10938 6.42188C5.10938 6.16406 5.03711 5.94727 4.89258 5.77148C4.74805 5.5957 4.55664 5.45312 4.31836 5.34375C4.08008 5.23438 3.78516 5.12891 3.43359 5.02734L2.39062 4.74609C1.69531 4.54297 1.16211 4.26172 0.791016 3.90234C0.419922 3.54297 0.234375 3.08594 0.234375 2.53125C0.234375 2.0625 0.363281 1.64844 0.621094 1.28906C0.878906 0.929688 1.22852 0.650391 1.66992 0.451172C2.11133 0.251953 2.60547 0.152344 3.15234 0.152344C3.69141 0.152344 4.17578 0.25 4.60547 0.445312C5.03516 0.640625 5.375 0.908203 5.625 1.24805C5.875 1.58789 6.00781 1.97266 6.02344 2.40234H4.99219ZM7.52344 2.39062H8.53125V8.75391H7.52344V2.39062ZM8.02734 1.33594C7.90234 1.33594 7.78516 1.30664 7.67578 1.24805C7.56641 1.18945 7.48047 1.10742 7.41797 1.00195C7.35547 0.896484 7.32422 0.785156 7.32422 0.667969C7.32422 0.542969 7.35547 0.429688 7.41797 0.328125C7.48047 0.226562 7.56641 0.146484 7.67578 0.0878906C7.78516 0.0292969 7.90234 0 8.02734 0C8.16016 0 8.28125 0.0292969 8.39062 0.0878906C8.5 0.146484 8.58594 0.226562 8.64844 0.328125C8.71094 0.429688 8.74219 0.542969 8.74219 0.667969C8.74219 0.785156 8.71094 0.896484 8.64844 1.00195C8.58594 1.10742 8.5 1.18945 8.39062 1.24805C8.28125 1.30664 8.16016 1.33594 8.02734 1.33594ZM11.1445 8.75391H10.1367V2.39062H11.1094V3.38672H11.1914C11.3555 3.04297 11.5898 2.77734 11.8945 2.58984C12.1992 2.40234 12.5859 2.30859 13.0547 2.30859C13.4922 2.30859 13.8711 2.39648 14.1914 2.57227C14.5117 2.74805 14.7598 3.01562 14.9355 3.375C15.1113 3.73438 15.1992 4.17969 15.1992 4.71094V8.75391H14.1914V4.78125C14.1914 4.45312 14.1348 4.17188 14.0215 3.9375C13.9082 3.70312 13.7441 3.52344 13.5293 3.39844C13.3145 3.27344 13.0547 3.21094 12.75 3.21094C12.4375 3.21094 12.1602 3.27734 11.918 3.41016C11.6758 3.54297 11.4863 3.74023 11.3496 4.00195C11.2129 4.26367 11.1445 4.57422 11.1445 4.93359V8.75391ZM19.418 8.88281C18.832 8.88281 18.3184 8.74219 17.877 8.46094C17.4355 8.17969 17.0977 7.79102 16.8633 7.29492C16.6289 6.79883 16.5117 6.23438 16.5117 5.60156C16.5117 4.96094 16.6328 4.39062 16.875 3.89062C17.1172 3.39062 17.4551 3.00195 17.8887 2.72461C18.3223 2.44727 18.8242 2.30859 19.3945 2.30859C19.8477 2.30859 20.2559 2.39062 20.6191 2.55469C20.9824 2.71875 21.2773 2.95312 21.5039 3.25781C21.7305 3.5625 21.8711 3.91406 21.9258 4.3125H20.918C20.8711 4.10938 20.7812 3.92383 20.6484 3.75586C20.5156 3.58789 20.3457 3.45312 20.1387 3.35156C19.9316 3.25 19.6914 3.19922 19.418 3.19922C19.043 3.19922 18.7129 3.29688 18.4277 3.49219C18.1426 3.6875 17.9199 3.96289 17.7598 4.31836C17.5996 4.67383 17.5195 5.08984 17.5195 5.56641C17.5195 6.05078 17.5977 6.47461 17.7539 6.83789C17.9102 7.20117 18.1309 7.48242 18.416 7.68164C18.7012 7.88086 19.0352 7.98047 19.418 7.98047C19.668 7.98047 19.8965 7.9375 20.1035 7.85156C20.3105 7.76562 20.4844 7.63867 20.625 7.4707C20.7656 7.30273 20.8633 7.10547 20.918 6.87891H21.9258C21.8711 7.26172 21.7344 7.60352 21.5156 7.9043C21.2969 8.20508 21.0078 8.44336 20.6484 8.61914C20.2891 8.79492 19.8789 8.88281 19.418 8.88281ZM25.8398 8.88281C25.2383 8.88281 24.7129 8.74805 24.2637 8.47852C23.8145 8.20898 23.4688 7.82812 23.2266 7.33594C22.9844 6.84375 22.8633 6.27344 22.8633 5.625C22.8633 4.97656 22.9844 4.40039 23.2266 3.89648C23.4688 3.39258 23.8066 3.00195 24.2402 2.72461C24.6738 2.44727 25.1758 2.30859 25.7461 2.30859C26.2305 2.30859 26.6797 2.41406 27.0938 2.625C27.5078 2.83594 27.8438 3.17969 28.1016 3.65625C28.3594 4.13281 28.4883 4.74219 28.4883 5.48438V5.90625H23.5664V5.05078H27.4688C27.4688 4.69141 27.3984 4.37305 27.2578 4.0957C27.1172 3.81836 26.916 3.59961 26.6543 3.43945C26.3926 3.2793 26.0898 3.19922 25.7461 3.19922C25.3711 3.19922 25.043 3.29102 24.7617 3.47461C24.4805 3.6582 24.2617 3.9043 24.1055 4.21289C23.9492 4.52148 23.8711 4.85156 23.8711 5.20312V5.77734C23.8711 6.24609 23.9531 6.64648 24.1172 6.97852C24.2812 7.31055 24.5117 7.5625 24.8086 7.73438C25.1055 7.90625 25.4492 7.99219 25.8398 7.99219C26.082 7.99219 26.3008 7.95898 26.4961 7.89258C26.6914 7.82617 26.8574 7.74023 26.9941 7.63477C27.1309 7.5293 27.2383 7.40625 27.3164 7.26562H28.3945C28.293 7.58594 28.125 7.86719 27.8906 8.10938C27.6562 8.35156 27.3633 8.54102 27.0117 8.67773C26.6602 8.81445 26.2695 8.88281 25.8398 8.88281ZM35.8008 8.75391H34.7344V1.37109H34.6875L32.625 2.74219V1.67578L34.7344 0.269531H35.8008V8.75391ZM40.8867 0.152344C41.4336 0.152344 41.9375 0.277344 42.3984 0.527344C42.8594 0.777344 43.2363 1.20117 43.5293 1.79883C43.8223 2.39648 43.9688 3.1875 43.9688 4.17188C43.9688 5.16406 43.8398 6.01172 43.582 6.71484C43.3242 7.41797 42.9531 7.95312 42.4688 8.32031C41.9844 8.6875 41.4102 8.87109 40.7461 8.87109C40.2617 8.87109 39.8242 8.77539 39.4336 8.58398C39.043 8.39258 38.7227 8.12695 38.4727 7.78711C38.2227 7.44727 38.0625 7.05469 37.9922 6.60938H39.0352C39.0977 6.86719 39.2051 7.0957 39.3574 7.29492C39.5098 7.49414 39.7031 7.65039 39.9375 7.76367C40.1719 7.87695 40.4414 7.93359 40.7461 7.93359C41.207 7.93359 41.6055 7.80469 41.9414 7.54688C42.2773 7.28906 42.5352 6.91602 42.7148 6.42773C42.8945 5.93945 42.9844 5.35547 42.9844 4.67578H42.8672C42.7031 4.91016 42.5098 5.11133 42.2871 5.2793C42.0645 5.44727 41.8184 5.57617 41.5488 5.66602C41.2793 5.75586 40.9961 5.80078 40.6992 5.80078C40.1992 5.80078 39.7363 5.67969 39.3105 5.4375C38.8848 5.19531 38.5469 4.86133 38.2969 4.43555C38.0469 4.00977 37.9219 3.53125 37.9219 3C37.9219 2.46875 38.0449 1.98633 38.291 1.55273C38.5371 1.11914 38.8848 0.775391 39.334 0.521484C39.7832 0.267578 40.3008 0.144531 40.8867 0.152344ZM40.8867 1.07812C40.5273 1.07812 40.1992 1.16406 39.9023 1.33594C39.6055 1.50781 39.373 1.74023 39.2051 2.0332C39.0371 2.32617 38.9531 2.64453 38.9531 2.98828C38.9531 3.33203 39.0352 3.64844 39.1992 3.9375C39.3633 4.22656 39.5898 4.45508 39.8789 4.62305C40.168 4.79102 40.4922 4.875 40.8516 4.875C41.2109 4.875 41.541 4.78516 41.8418 4.60547C42.1426 4.42578 42.3809 4.18945 42.5566 3.89648C42.7324 3.60352 42.8203 3.29297 42.8203 2.96484C42.8203 2.63672 42.7363 2.32812 42.5684 2.03906C42.4004 1.75 42.1699 1.51758 41.877 1.3418C41.584 1.16602 41.2539 1.07812 40.8867 1.07812ZM48.2578 8.87109C47.6719 8.87109 47.1504 8.76953 46.6934 8.56641C46.2363 8.36328 45.8809 8.08203 45.627 7.72266C45.373 7.36328 45.2461 6.95703 45.2461 6.50391C45.2461 6.14453 45.3203 5.80859 45.4688 5.49609C45.6172 5.18359 45.8242 4.92578 46.0898 4.72266C46.3555 4.51953 46.6484 4.39453 46.9688 4.34766V4.30078C46.6953 4.23047 46.4531 4.10547 46.2422 3.92578C46.0312 3.74609 45.8672 3.52344 45.75 3.25781C45.6328 2.99219 45.5742 2.70703 45.5742 2.40234C45.5742 1.97266 45.6914 1.58594 45.9258 1.24219C46.1602 0.898438 46.4805 0.630859 46.8867 0.439453C47.293 0.248047 47.75 0.152344 48.2578 0.152344C48.7656 0.152344 49.2246 0.248047 49.6348 0.439453C50.0449 0.630859 50.3672 0.898438 50.6016 1.24219C50.8359 1.58594 50.9531 1.97266 50.9531 2.40234C50.9531 2.70703 50.8926 2.99219 50.7715 3.25781C50.6504 3.52344 50.4844 3.74609 50.2734 3.92578C50.0625 4.10547 49.8203 4.23047 49.5469 4.30078V4.34766C49.8672 4.39453 50.1582 4.51953 50.4199 4.72266C50.6816 4.92578 50.8906 5.18359 51.0469 5.49609C51.2031 5.80859 51.2812 6.14453 51.2812 6.50391C51.2812 6.95703 51.1523 7.36328 50.8945 7.72266C50.6367 8.08203 50.2793 8.36328 49.8223 8.56641C49.3652 8.76953 48.8438 8.87109 48.2578 8.87109ZM48.2578 7.94531C48.6562 7.94531 49.0039 7.88281 49.3008 7.75781C49.5977 7.63281 49.8262 7.45703 49.9863 7.23047C50.1465 7.00391 50.2266 6.74219 50.2266 6.44531C50.2266 6.13281 50.1426 5.85352 49.9746 5.60742C49.8066 5.36133 49.5723 5.16797 49.2715 5.02734C48.9707 4.88672 48.6328 4.81641 48.2578 4.81641C47.8828 4.81641 47.5449 4.88672 47.2441 5.02734C46.9434 5.16797 46.709 5.36133 46.541 5.60742C46.373 5.85352 46.293 6.13281 46.3008 6.44531C46.293 6.74219 46.3691 7.00391 46.5293 7.23047C46.6895 7.45703 46.918 7.63281 47.2148 7.75781C47.5117 7.88281 47.8594 7.94531 48.2578 7.94531ZM48.2578 3.92578C48.5781 3.92578 48.8652 3.86523 49.1191 3.74414C49.373 3.62305 49.5703 3.45312 49.7109 3.23438C49.8516 3.01562 49.9219 2.76562 49.9219 2.48438C49.9219 2.20312 49.8535 1.95508 49.7168 1.74023C49.5801 1.52539 49.3848 1.35938 49.1309 1.24219C48.877 1.125 48.5859 1.06641 48.2578 1.06641C47.9297 1.06641 47.6387 1.125 47.3848 1.24219C47.1309 1.35938 46.9355 1.52539 46.7988 1.74023C46.6621 1.95508 46.5938 2.20312 46.5938 2.48438C46.5938 2.76562 46.666 3.01562 46.8105 3.23438C46.9551 3.45312 47.1523 3.62305 47.4023 3.74414C47.6523 3.86523 47.9375 3.92578 48.2578 3.92578ZM55.5352 8.87109C54.9492 8.87109 54.4277 8.76953 53.9707 8.56641C53.5137 8.36328 53.1582 8.08203 52.9043 7.72266C52.6504 7.36328 52.5234 6.95703 52.5234 6.50391C52.5234 6.14453 52.5977 5.80859 52.7461 5.49609C52.8945 5.18359 53.1016 4.92578 53.3672 4.72266C53.6328 4.51953 53.9258 4.39453 54.2461 4.34766V4.30078C53.9727 4.23047 53.7305 4.10547 53.5195 3.92578C53.3086 3.74609 53.1445 3.52344 53.0273 3.25781C52.9102 2.99219 52.8516 2.70703 52.8516 2.40234C52.8516 1.97266 52.9688 1.58594 53.2031 1.24219C53.4375 0.898438 53.7578 0.630859 54.1641 0.439453C54.5703 0.248047 55.0273 0.152344 55.5352 0.152344C56.043 0.152344 56.502 0.248047 56.9121 0.439453C57.3223 0.630859 57.6445 0.898438 57.8789 1.24219C58.1133 1.58594 58.2305 1.97266 58.2305 2.40234C58.2305 2.70703 58.1699 2.99219 58.0488 3.25781C57.9277 3.52344 57.7617 3.74609 57.5508 3.92578C57.3398 4.10547 57.0977 4.23047 56.8242 4.30078V4.34766C57.1445 4.39453 57.4355 4.51953 57.6973 4.72266C57.959 4.92578 58.168 5.18359 58.3242 5.49609C58.4805 5.80859 58.5586 6.14453 58.5586 6.50391C58.5586 6.95703 58.4297 7.36328 58.1719 7.72266C57.9141 8.08203 57.5566 8.36328 57.0996 8.56641C56.6426 8.76953 56.1211 8.87109 55.5352 8.87109ZM55.5352 7.94531C55.9336 7.94531 56.2812 7.88281 56.5781 7.75781C56.875 7.63281 57.1035 7.45703 57.2637 7.23047C57.4238 7.00391 57.5039 6.74219 57.5039 6.44531C57.5039 6.13281 57.4199 5.85352 57.252 5.60742C57.084 5.36133 56.8496 5.16797 56.5488 5.02734C56.248 4.88672 55.9102 4.81641 55.5352 4.81641C55.1602 4.81641 54.8223 4.88672 54.5215 5.02734C54.2207 5.16797 53.9863 5.36133 53.8184 5.60742C53.6504 5.85352 53.5703 6.13281 53.5781 6.44531C53.5703 6.74219 53.6465 7.00391 53.8066 7.23047C53.9668 7.45703 54.1953 7.63281 54.4922 7.75781C54.7891 7.88281 55.1367 7.94531 55.5352 7.94531ZM55.5352 3.92578C55.8555 3.92578 56.1426 3.86523 56.3965 3.74414C56.6504 3.62305 56.8477 3.45312 56.9883 3.23438C57.1289 3.01562 57.1992 2.76562 57.1992 2.48438C57.1992 2.20312 57.1309 1.95508 56.9941 1.74023C56.8574 1.52539 56.6621 1.35938 56.4082 1.24219C56.1543 1.125 55.8633 1.06641 55.5352 1.06641C55.207 1.06641 54.916 1.125 54.6621 1.24219C54.4082 1.35938 54.2129 1.52539 54.0762 1.74023C53.9395 1.95508 53.8711 2.20312 53.8711 2.48438C53.8711 2.76562 53.9434 3.01562 54.0879 3.23438C54.2324 3.45312 54.4297 3.62305 54.6797 3.74414C54.9297 3.86523 55.2148 3.92578 55.5352 3.92578ZM0.949219 27.7539V26.8164H2.92969C3.61719 26.8164 4.18945 26.6836 4.64648 26.418C5.10352 26.1523 5.44531 25.7734 5.67188 25.2812C5.89844 24.7891 6.01172 24.1953 6.01172 23.5C6.01172 22.8125 5.90039 22.2227 5.67773 21.7305C5.45508 21.2383 5.12305 20.8613 4.68164 20.5996C4.24023 20.3379 3.69141 20.207 3.03516 20.207H0.902344V19.2695H3.10547C3.92578 19.2695 4.63086 19.4375 5.2207 19.7734C5.81055 20.1094 6.26172 20.5957 6.57422 21.2324C6.88672 21.8691 7.04297 22.625 7.04297 23.5C7.04297 24.3828 6.88477 25.1426 6.56836 25.7793C6.25195 26.416 5.79102 26.9043 5.18555 27.2441C4.58008 27.584 3.85156 27.7539 3 27.7539H0.949219ZM1.41797 27.7539H0.363281V19.2695H1.41797V27.7539ZM11.1328 27.8828C10.5312 27.8828 10.0059 27.748 9.55664 27.4785C9.10742 27.209 8.76172 26.8281 8.51953 26.3359C8.27734 25.8438 8.15625 25.2734 8.15625 24.625C8.15625 23.9766 8.27734 23.4004 8.51953 22.8965C8.76172 22.3926 9.09961 22.002 9.5332 21.7246C9.9668 21.4473 10.4688 21.3086 11.0391 21.3086C11.5234 21.3086 11.9727 21.4141 12.3867 21.625C12.8008 21.8359 13.1367 22.1797 13.3945 22.6562C13.6523 23.1328 13.7812 23.7422 13.7812 24.4844V24.9062H8.85938V24.0508H12.7617C12.7617 23.6914 12.6914 23.373 12.5508 23.0957C12.4102 22.8184 12.209 22.5996 11.9473 22.4395C11.6855 22.2793 11.3828 22.1992 11.0391 22.1992C10.6641 22.1992 10.3359 22.291 10.0547 22.4746C9.77344 22.6582 9.55469 22.9043 9.39844 23.2129C9.24219 23.5215 9.16406 23.8516 9.16406 24.2031V24.7773C9.16406 25.2461 9.24609 25.6465 9.41016 25.9785C9.57422 26.3105 9.80469 26.5625 10.1016 26.7344C10.3984 26.9062 10.7422 26.9922 11.1328 26.9922C11.375 26.9922 11.5938 26.959 11.7891 26.8926C11.9844 26.8262 12.1504 26.7402 12.2871 26.6348C12.4238 26.5293 12.5312 26.4062 12.6094 26.2656H13.6875C13.5859 26.5859 13.418 26.8672 13.1836 27.1094C12.9492 27.3516 12.6562 27.541 12.3047 27.6777C11.9531 27.8145 11.5625 27.8828 11.1328 27.8828ZM17.9414 22.2344H14.4961V21.3906H17.9414V22.2344ZM15.5156 20.5234C15.5156 20.1797 15.5898 19.8848 15.7383 19.6387C15.8867 19.3926 16.0977 19.2031 16.3711 19.0703C16.6445 18.9375 16.9648 18.8711 17.332 18.8711C17.4492 18.8711 17.5742 18.877 17.707 18.8887C17.8398 18.9004 17.9648 18.918 18.082 18.9414V19.8438C17.8945 19.8125 17.7188 19.7969 17.5547 19.7969C17.2031 19.7969 16.9453 19.873 16.7812 20.0254C16.6172 20.1777 16.5352 20.418 16.5352 20.7461V27.7539H15.5156V20.5234ZM19.1367 21.3906H20.1445V27.7539H19.1367V21.3906ZM19.6406 20.3359C19.5156 20.3359 19.3984 20.3066 19.2891 20.248C19.1797 20.1895 19.0938 20.1074 19.0312 20.002C18.9688 19.8965 18.9375 19.7852 18.9375 19.668C18.9375 19.543 18.9688 19.4297 19.0312 19.3281C19.0938 19.2266 19.1797 19.1465 19.2891 19.0879C19.3984 19.0293 19.5156 19 19.6406 19C19.7734 19 19.8945 19.0293 20.0039 19.0879C20.1133 19.1465 20.1992 19.2266 20.2617 19.3281C20.3242 19.4297 20.3555 19.543 20.3555 19.668C20.3555 19.7852 20.3242 19.8965 20.2617 20.002C20.1992 20.1074 20.1133 20.1895 20.0039 20.248C19.8945 20.3066 19.7734 20.3359 19.6406 20.3359ZM22.7578 27.7539H21.75V21.3906H22.7227V22.3867H22.8047C22.9688 22.043 23.2031 21.7773 23.5078 21.5898C23.8125 21.4023 24.1992 21.3086 24.668 21.3086C25.1055 21.3086 25.4844 21.3965 25.8047 21.5723C26.125 21.748 26.373 22.0156 26.5488 22.375C26.7246 22.7344 26.8125 23.1797 26.8125 23.7109V27.7539H25.8047V23.7812C25.8047 23.4531 25.748 23.1719 25.6348 22.9375C25.5215 22.7031 25.3574 22.5234 25.1426 22.3984C24.9277 22.2734 24.668 22.2109 24.3633 22.2109C24.0508 22.2109 23.7734 22.2773 23.5312 22.4102C23.2891 22.543 23.0996 22.7402 22.9629 23.002C22.8262 23.2637 22.7578 23.5742 22.7578 23.9336V27.7539ZM31.1016 27.8828C30.5 27.8828 29.9746 27.748 29.5254 27.4785C29.0762 27.209 28.7305 26.8281 28.4883 26.3359C28.2461 25.8438 28.125 25.2734 28.125 24.625C28.125 23.9766 28.2461 23.4004 28.4883 22.8965C28.7305 22.3926 29.0684 22.002 29.502 21.7246C29.9355 21.4473 30.4375 21.3086 31.0078 21.3086C31.4922 21.3086 31.9414 21.4141 32.3555 21.625C32.7695 21.8359 33.1055 22.1797 33.3633 22.6562C33.6211 23.1328 33.75 23.7422 33.75 24.4844V24.9062H28.8281V24.0508H32.7305C32.7305 23.6914 32.6602 23.373 32.5195 23.0957C32.3789 22.8184 32.1777 22.5996 31.916 22.4395C31.6543 22.2793 31.3516 22.1992 31.0078 22.1992C30.6328 22.1992 30.3047 22.291 30.0234 22.4746C29.7422 22.6582 29.5234 22.9043 29.3672 23.2129C29.2109 23.5215 29.1328 23.8516 29.1328 24.2031V24.7773C29.1328 25.2461 29.2148 25.6465 29.3789 25.9785C29.543 26.3105 29.7734 26.5625 30.0703 26.7344C30.3672 26.9062 30.7109 26.9922 31.1016 26.9922C31.3438 26.9922 31.5625 26.959 31.7578 26.8926C31.9531 26.8262 32.1191 26.7402 32.2559 26.6348C32.3926 26.5293 32.5 26.4062 32.5781 26.2656H33.6562C33.5547 26.5859 33.3867 26.8672 33.1523 27.1094C32.918 27.3516 32.625 27.541 32.2734 27.6777C31.9219 27.8145 31.5312 27.8828 31.1016 27.8828ZM37.4648 27.8828C36.9414 27.8828 36.4746 27.748 36.0645 27.4785C35.6543 27.209 35.334 26.8242 35.1035 26.3242C34.873 25.8242 34.7578 25.2461 34.7578 24.5898C34.7578 23.9258 34.873 23.3457 35.1035 22.8496C35.334 22.3535 35.6543 21.9727 36.0645 21.707C36.4746 21.4414 36.9453 21.3086 37.4766 21.3086C37.8516 21.3086 38.1621 21.3691 38.4082 21.4902C38.6543 21.6113 38.8359 21.7422 38.9531 21.8828C39.0703 22.0234 39.1914 22.1953 39.3164 22.3984H39.3867V19.2695H40.4062V27.7539H39.4219V26.7812H39.3164C39.1836 26.9844 39.0586 27.1562 38.9414 27.2969C38.8242 27.4375 38.6426 27.5703 38.3965 27.6953C38.1504 27.8203 37.8398 27.8828 37.4648 27.8828ZM37.6055 26.9805C37.9883 26.9805 38.3164 26.8789 38.5898 26.6758C38.8633 26.4727 39.0703 26.1895 39.2109 25.8262C39.3516 25.4629 39.4219 25.043 39.4219 24.5664C39.4219 24.0898 39.3535 23.6758 39.2168 23.3242C39.0801 22.9727 38.875 22.6992 38.6016 22.5039C38.3281 22.3086 37.9961 22.2109 37.6055 22.2109C37.2148 22.2109 36.8828 22.3125 36.6094 22.5156C36.3359 22.7188 36.1289 22.998 35.9883 23.3535C35.8477 23.709 35.7773 24.1133 35.7773 24.5664C35.7773 25.0273 35.8477 25.4395 35.9883 25.8027C36.1289 26.166 36.3359 26.4531 36.6094 26.6641C36.8828 26.875 37.2148 26.9805 37.6055 26.9805ZM45.293 19.2695H46.3008V22.3984H46.3828C46.5391 22.1641 46.668 21.9844 46.7695 21.8594C46.8711 21.7344 47.0449 21.6113 47.291 21.4902C47.5371 21.3691 47.8477 21.3086 48.2227 21.3086C48.7539 21.3086 49.2246 21.4414 49.6348 21.707C50.0449 21.9727 50.3652 22.3535 50.5957 22.8496C50.8262 23.3457 50.9414 23.9258 50.9414 24.5898C50.9414 25.2461 50.8262 25.8242 50.5957 26.3242C50.3652 26.8242 50.0469 27.209 49.6406 27.4785C49.2344 27.748 48.7656 27.8828 48.2344 27.8828C47.8672 27.8828 47.5605 27.8203 47.3145 27.6953C47.0684 27.5703 46.8848 27.4375 46.7637 27.2969C46.6426 27.1562 46.5156 26.9844 46.3828 26.7812H46.2656V27.7539H45.293V19.2695ZM46.2773 24.5664C46.2773 25.043 46.3477 25.4629 46.4883 25.8262C46.6289 26.1895 46.8359 26.4727 47.1094 26.6758C47.3828 26.8789 47.707 26.9805 48.082 26.9805C48.4727 26.9805 48.8066 26.875 49.084 26.6641C49.3613 26.4531 49.5703 26.166 49.7109 25.8027C49.8516 25.4395 49.9219 25.0273 49.9219 24.5664C49.9219 24.1133 49.8535 23.709 49.7168 23.3535C49.5801 22.998 49.373 22.7188 49.0957 22.5156C48.8184 22.3125 48.4805 22.2109 48.082 22.2109C47.6992 22.2109 47.373 22.3086 47.1035 22.5039C46.834 22.6992 46.6289 22.9727 46.4883 23.3242C46.3477 23.6758 46.2773 24.0898 46.2773 24.5664ZM52.6641 30.1445C52.4609 30.1445 52.2734 30.1367 52.1016 30.1211V29.2188L52.2891 29.2305C52.3516 29.2383 52.4531 29.2422 52.5938 29.2422C52.7656 29.2422 52.9082 29.2246 53.0215 29.1895C53.1348 29.1543 53.248 29.0664 53.3613 28.9258C53.4746 28.7852 53.582 28.5703 53.6836 28.2812L53.8711 27.8008L51.5156 21.3906H52.6172L54.3516 26.4414H54.4219L56.1562 21.3906H57.2578L54.5625 28.668C54.375 29.1602 54.125 29.5293 53.8125 29.7754C53.5 30.0215 53.1172 30.1445 52.6641 30.1445ZM63.7852 27.8828C63.2617 27.8828 62.7949 27.748 62.3848 27.4785C61.9746 27.209 61.6543 26.8242 61.4238 26.3242C61.1934 25.8242 61.0781 25.2461 61.0781 24.5898C61.0781 23.9258 61.1934 23.3457 61.4238 22.8496C61.6543 22.3535 61.9746 21.9727 62.3848 21.707C62.7949 21.4414 63.2656 21.3086 63.7969 21.3086C64.1719 21.3086 64.4824 21.3691 64.7285 21.4902C64.9746 21.6113 65.1562 21.7422 65.2734 21.8828C65.3906 22.0234 65.5117 22.1953 65.6367 22.3984H65.707V19.2695H66.7266V27.7539H65.7422V26.7812H65.6367C65.5039 26.9844 65.3789 27.1562 65.2617 27.2969C65.1445 27.4375 64.9629 27.5703 64.7168 27.6953C64.4707 27.8203 64.1602 27.8828 63.7852 27.8828ZM63.9258 26.9805C64.3086 26.9805 64.6367 26.8789 64.9102 26.6758C65.1836 26.4727 65.3906 26.1895 65.5312 25.8262C65.6719 25.4629 65.7422 25.043 65.7422 24.5664C65.7422 24.0898 65.6738 23.6758 65.5371 23.3242C65.4004 22.9727 65.1953 22.6992 64.9219 22.5039C64.6484 22.3086 64.3164 22.2109 63.9258 22.2109C63.5352 22.2109 63.2031 22.3125 62.9297 22.5156C62.6562 22.7188 62.4492 22.998 62.3086 23.3535C62.168 23.709 62.0977 24.1133 62.0977 24.5664C62.0977 25.0273 62.168 25.4395 62.3086 25.8027C62.4492 26.166 62.6562 26.4531 62.9297 26.6641C63.2031 26.875 63.5352 26.9805 63.9258 26.9805ZM71.1445 27.8828C70.543 27.8828 70.0176 27.748 69.5684 27.4785C69.1191 27.209 68.7734 26.8281 68.5312 26.3359C68.2891 25.8438 68.168 25.2734 68.168 24.625C68.168 23.9766 68.2891 23.4004 68.5312 22.8965C68.7734 22.3926 69.1113 22.002 69.5449 21.7246C69.9785 21.4473 70.4805 21.3086 71.0508 21.3086C71.5352 21.3086 71.9844 21.4141 72.3984 21.625C72.8125 21.8359 73.1484 22.1797 73.4062 22.6562C73.6641 23.1328 73.793 23.7422 73.793 24.4844V24.9062H68.8711V24.0508H72.7734C72.7734 23.6914 72.7031 23.373 72.5625 23.0957C72.4219 22.8184 72.2207 22.5996 71.959 22.4395C71.6973 22.2793 71.3945 22.1992 71.0508 22.1992C70.6758 22.1992 70.3477 22.291 70.0664 22.4746C69.7852 22.6582 69.5664 22.9043 69.4102 23.2129C69.2539 23.5215 69.1758 23.8516 69.1758 24.2031V24.7773C69.1758 25.2461 69.2578 25.6465 69.4219 25.9785C69.5859 26.3105 69.8164 26.5625 70.1133 26.7344C70.4102 26.9062 70.7539 26.9922 71.1445 26.9922C71.3867 26.9922 71.6055 26.959 71.8008 26.8926C71.9961 26.8262 72.1621 26.7402 72.2988 26.6348C72.4355 26.5293 72.543 26.4062 72.6211 26.2656H73.6992C73.5977 26.5859 73.4297 26.8672 73.1953 27.1094C72.9609 27.3516 72.668 27.541 72.3164 27.6777C71.9648 27.8145 71.5742 27.8828 71.1445 27.8828ZM77.8828 22.2344H74.5664V21.3906H77.8828V22.2344ZM76.5469 19.8672V25.9258C76.5469 26.1836 76.584 26.3809 76.6582 26.5176C76.7324 26.6543 76.8301 26.748 76.9512 26.7988C77.0723 26.8496 77.2148 26.875 77.3789 26.875C77.5742 26.875 77.7734 26.8672 77.9766 26.8516V27.7891C77.7734 27.8203 77.5391 27.8359 77.2734 27.8359C76.9766 27.8359 76.6953 27.7734 76.4297 27.6484C76.1641 27.5234 75.9473 27.3359 75.7793 27.0859C75.6113 26.8359 75.5273 26.5352 75.5273 26.1836V19.8672H76.5469ZM83.0742 24.8008C83.0039 24.8008 82.6641 24.8242 82.0547 24.8711L81.3867 24.918C80.9102 24.9492 80.541 25.0527 80.2793 25.2285C80.0176 25.4043 79.8867 25.6602 79.8867 25.9961C79.8867 26.2148 79.9434 26.3984 80.0566 26.5469C80.1699 26.6953 80.3281 26.8086 80.5312 26.8867C80.7344 26.9648 80.9648 27.0039 81.2227 27.0039C81.5898 27.0039 81.9062 26.9316 82.1719 26.7871C82.4375 26.6426 82.6406 26.4512 82.7812 26.2129C82.9219 25.9746 82.9922 25.7188 82.9922 25.4453V23.4648C82.9922 23.1914 82.9395 22.959 82.834 22.7676C82.7285 22.5762 82.5684 22.4316 82.3535 22.334C82.1387 22.2363 81.8711 22.1875 81.5508 22.1875C81.168 22.1875 80.8535 22.2656 80.6074 22.4219C80.3613 22.5781 80.1992 22.7852 80.1211 23.043H79.0664C79.1133 22.6992 79.248 22.3965 79.4707 22.1348C79.6934 21.873 79.9883 21.6699 80.3555 21.5254C80.7227 21.3809 81.1367 21.3086 81.5977 21.3086C81.9648 21.3086 82.3242 21.3633 82.6758 21.4727C83.0273 21.582 83.334 21.8027 83.5957 22.1348C83.8574 22.4668 83.9883 22.9414 83.9883 23.5586V27.7539H82.9922V26.8867H82.9453C82.8672 27.0508 82.748 27.209 82.5879 27.3613C82.4277 27.5137 82.2168 27.6426 81.9551 27.748C81.6934 27.8535 81.3906 27.9062 81.0469 27.9062C80.6406 27.9062 80.2734 27.8281 79.9453 27.6719C79.6172 27.5156 79.3574 27.2891 79.166 26.9922C78.9746 26.6953 78.8789 26.3477 78.8789 25.9492C78.8789 25.2852 79.1055 24.8184 79.5586 24.5488C80.0117 24.2793 80.582 24.1211 81.2695 24.0742C81.3477 24.0664 81.7227 24.043 82.3945 24.0039L83.0625 23.9805L83.0742 24.8008ZM85.6055 21.3906H86.6133V27.7539H85.6055V21.3906ZM86.1094 20.3359C85.9844 20.3359 85.8672 20.3066 85.7578 20.248C85.6484 20.1895 85.5625 20.1074 85.5 20.002C85.4375 19.8965 85.4062 19.7852 85.4062 19.668C85.4062 19.543 85.4375 19.4297 85.5 19.3281C85.5625 19.2266 85.6484 19.1465 85.7578 19.0879C85.8672 19.0293 85.9844 19 86.1094 19C86.2422 19 86.3633 19.0293 86.4727 19.0879C86.582 19.1465 86.668 19.2266 86.7305 19.3281C86.793 19.4297 86.8242 19.543 86.8242 19.668C86.8242 19.7852 86.793 19.8965 86.7305 20.002C86.668 20.1074 86.582 20.1895 86.4727 20.248C86.3633 20.3066 86.2422 20.3359 86.1094 20.3359ZM89.2266 27.7539H88.2188V19.2695H89.2266V27.7539Z" fill="#18161E"/>
</svg>
